<svg id="Layer_1" enable-background="new 0 0 510 510" height="512" viewBox="0 0 510 510" width="512" xmlns="http://www.w3.org/2000/svg"><g><g><path d="m255 0c-98.131 0-158.574 55.347-158.741 55.441-3.787 17.481-10.374 42.85-10.374 61.465 0 140.833 118.763 254.972 259.596 254.972 60.017 0 115.159-27.944 158.719-62.639.178-1.087 5.8-23.477 5.8-54.239 0-140.833-114.167-255-255-255z" fill="#d7f5ff"/><path d="m345.459 364.679c-140.833 0-246.477-113.071-246.477-253.903 0-18.615-6.51-37.854-2.723-55.335-.006.005-.011.01-.017.014-58.645 46.72-96.242 118.737-96.242 199.545 0 22.62 2.945 44.552 8.473 65.434l93.577 138.623c42.611 31.989 95.567 50.943 152.95 50.943 121.17 0 224.116-84.98 249.2-200.761-43.56 34.695-98.725 55.44-158.741 55.44z" fill="#afe6ff"/></g><g><path d="m8.473 320.434c14.866 56.155 48.408 104.712 93.577 138.623h30.775l-3.924-93.986-29.921-17.737z" fill="#6e64c3"/><path d="m98.982 347.334 33.844 111.722 53.074-34.042-64.291-70.955z" fill="#5046af"/><path d="m203.076 36.081c-2.001-2.298-5.78-.883-5.78 2.164v84.164l8.982 212.078h167.423v-102.438z" fill="#64bc0f"/><path d="m197.295 303.386 8.982 31.101h121.184l12.05-46.016-142.216-166.062z" fill="#57aa00"/><path d="m426.341 388.198 38.811-243.417-39.106-34.005-21.775 9.848-64.76 167.847v81.656z" fill="#ffc305"/><path d="m465.152 144.781 2.618-16.421-41.724-17.584-21.775 9.848z" fill="#ffa50a"/><path d="m426.341 388.198-86.83-99.727-26.203 67.913 108.991 57.162z" fill="#ffa50a"/><path d="m93.651 36.081c-2.001-2.298-5.78-.883-5.78 2.164l44.956 420.812h244.476l44.996-45.51z" fill="#ff3c3c"/><path d="m434.803 56.282c-2.014-1.868-5.277-1.113-6.266 1.45l-24.266 62.892 100.35 12.226c4.606.561 7.235-5.103 3.833-8.259z" fill="#2896ff"/></g></g></svg>